PathFileType	4	(X/Y/Z)	Walk6.trc
DataRate	CameraRate	NumFrames	NumMarkers	Units	OrigDataRate	OrigDataStartFrame	OrigNumFrames
200.000000	200.000000	4	59	mm	200.000000	397	554
Frame#	Times		C7		CLAV		STRN		RBack		LASI		RASI		RACR1		RUA1		RElbow		RFA1		RWRR		RWRU		RCAR		LACR1		LFA1		LWRU		LCAR		RTH1		RTH3		RTH2		RTH4		RLFC		LTH1		LTH3		LTH2		LTH4		LLFC		LTB1		LTB3		LTB2		LTB4		LMMAL		LMT1		LToe		LFHD		RFHD		T10		LMT5		LPSI		RPSI		LLMAL		RBHD		RTB1		LUA1		LBHD		RTB2		RTB3		RToe		RTB4		LCAL		RElbowM		RCAL		RMT1		LElbow		LElbowM		LWRR		RLMAL		RMT5		RMMAL
			X1	Y1	Z1	X2	Y2	Z2	X3	Y3	Z3	X4	Y4	Z4	X5	Y5	Z5	X6	Y6	Z6	X7	Y7	Z7	X8	Y8	Z8	X9	Y9	Z9	X10	Y10	Z10	X11	Y11	Z11	X12	Y12	Z12	X13	Y13	Z13	X14	Y14	Z14	X15	Y15	Z15	X16	Y16	Z16	X17	Y17	Z17	X18	Y18	Z18	X19	Y19	Z19	X20	Y20	Z20	X21	Y21	Z21	X22	Y22	Z22	X23	Y23	Z23	X24	Y24	Z24	X25	Y25	Z25	X26	Y26	Z26	X27	Y27	Z27	X28	Y28	Z28	X29	Y29	Z29	X30	Y30	Z30	X31	Y31	Z31	X32	Y32	Z32	X33	Y33	Z33	X34	Y34	Z34	X35	Y35	Z35	X36	Y36	Z36	X37	Y37	Z37	X38	Y38	Z38	X39	Y39	Z39	X40	Y40	Z40	X41	Y41	Z41	X42	Y42	Z42	X43	Y43	Z43	X44	Y44	Z44	X45	Y45	Z45	X46	Y46	Z46	X47	Y47	Z47	X48	Y48	Z48	X49	Y49	Z49	X50	Y50	Z50	X51	Y51	Z51	X52	Y52	Z52	X53	Y53	Z53	X54	Y54	Z54	X55	Y55	Z55	X56	Y56	Z56	X57	Y57	Z57	X58	Y58	Z58	X59	Y59	Z59

397	1.985	108.66	1424	4.1906	235.98	1351.7	-8.5867	319.04	1128.3	-12.683	74.255	1316.1	100.79	254.36	946.84	-140.48	277.22	957.48	133.49	194.5	1356.1	167.42	192.87	1142.8	225.65	178.29	1035.4	248.86	255.18	902.33	241.22	284.82	803.01	197.59	241.84	790.72	257.39	292.14	756.8	246.66	166.5	1368.4	-174.29	195.82	925.51	-255.94	180.6	805.34	-268.33	234.92	770.33	-261.53	197.08	753.27	179.22	220.99	570.69	134.94	273.58	680.21	129.9	208.34	661.95	155.88	227.94	465.93	119.69	190.78	738.24	-166.82	249.85	561.95	-146.44	290.39	669.93	-135.65	220.68	646.06	-158.39	257.46	467.24	-136.1	232.05	367.63	-62.509	90.8	243.79	-64.335	142.04	326.31	-133.88	160.58	303.83	-67.466	7.5285	189.16	-29.524	71.197	69.554	-65.275	94.608	44.687	-91.742	269.51	1594.7	-35.118	278.59	1596.4	37.647	79.215	1140.4	2.86	27.314	78.042	-128.53	48.807	973.85	-40.599	58.791	986.41	73.768	-16.828	189.8	-108.94	110.41	1551.4	79.88	242.08	343.63	39.03	143.97	1161.2	-226.27	100.03	1559.2	-46.645	215.31	254.21	106.86	200.41	163.25	30.799	346.75	29.352	63.632	221.14	253.05	35.331	-70.362	201.26	-53.638	144.14	1015	173.31	100.42	26.105	31.448	303.06	38.381	32.283	127.62	1041.7	-241.66	114.3	1025	-171.67	232.46	813.44	-218.4	147.46	60.252	78.859	257.82	20.816	117	164.29	76.659	0.35873
398	1.99	114.02	1424.7	4.3342	241.28	1352.3	-8.4642	324.28	1129.1	-12.345	79.621	1316.9	101.08	260.21	947.84	-140.17	282.53	958.36	133.7	199.86	1357	167.56	198.82	1143.9	226.17	184.86	1036.4	249.51	263.04	904.07	241.28	293.68	805.24	197.17	250.97	792.29	257.04	301.7	759.05	246.12	171.73	1369	-174.15	198.96	925.78	-255.66	182.57	805.74	-268.36	236.4	770.02	-261.45	202.05	753.66	179.11	223.72	570.83	134.83	277.49	679.75	129.49	212.15	662.22	155.65	229.52	465.87	119.67	197.28	739.57	-167.06	257.91	563.77	-146.61	297.46	672.11	-135.81	228.09	647.65	-158.7	266.22	468.88	-136.04	242.66	368.79	-62.466	103.8	242.29	-63.975	153.25	325.8	-133.6	172.4	303.65	-67.269	21.718	185.97	-29.01	88.489	68.358	-65.073	112.51	44.09	-91.629	275.18	1595.3	-35.06	284.25	1596.9	37.703	84.523	1141.1	3.2153	44.295	75.792	-128.19	54.253	974.57	-40.566	64.125	987.04	73.807	-2.746	186.13	-108.35	115.99	1552.2	79.915	243.12	343.45	38.981	148.79	1161.8	-225.85	105.65	1560.1	-46.614	216	254.1	106.8	200.82	163.21	30.725	346.82	29.327	63.712	221.83	252.93	35.28	-56.646	196.1	-52.949	150.78	1015.9	174.11	100.44	26.249	31.378	303.09	38.375	32.3	131.78	1042.5	-241.14	118.52	1025.9	-171.12	234.44	813.19	-218.32	147.57	60.38	78.778	257.81	20.808	117.03	164.42	76.716	0.27699
399	1.995	119.38	1425.4	4.4625	246.56	1353	-8.3541	329.51	1129.8	-12.008	84.982	1317.7	101.37	266.1	948.78	-139.81	287.83	959.2	133.86	205.21	1358	167.68	204.73	1144.9	226.68	191.38	1037.4	250.15	270.86	905.79	241.34	302.52	807.48	196.75	260.08	793.85	256.65	311.24	761.29	245.55	176.95	1369.6	-174.02	202.08	926	-255.39	184.52	806.1	-268.36	237.87	769.68	-261.39	206.98	754.02	178.99	226.44	570.95	134.71	281.4	679.25	129.11	215.92	662.46	155.4	231.14	465.81	119.63	203.73	740.85	-167.32	265.88	565.54	-146.79	304.45	674.23	-135.94	235.44	649.19	-159.02	274.85	470.46	-135.98	253.21	369.89	-62.426	116.9	240.67	-63.647	164.47	325.18	-133.34	184.25	303.37	-67.091	36.09	182.6	-28.543	105.96	67.112	-64.953	130.59	43.467	-91.589	280.84	1595.7	-35.021	289.9	1597.4	37.74	89.825	1141.7	3.5545	61.463	73.452	-127.92	59.683	975.22	-40.536	69.459	987.61	73.842	11.515	182.27	-107.81	121.57	1553	79.94	244.19	343.25	38.912	153.61	1162.3	-225.45	111.26	1560.9	-46.593	216.72	253.98	106.72	201.25	163.16	30.635	346.91	29.298	63.798	222.55	252.8	35.209	-42.698	190.71	-52.292	157.42	1016.7	174.88	100.46	26.405	31.302	303.13	38.367	32.316	135.91	1043.1	-240.63	122.73	1026.7	-170.57	236.42	812.93	-218.27	147.68	60.513	78.685	257.8	20.805	117.05	164.55	76.771	0.18108
400	2	124.71	1426.1	4.5748	251.84	1353.5	-8.2557	334.73	1130.6	-11.672	90.337	1318.4	101.64	272.03	949.64	-139.41	293.13	959.97	133.98	210.56	1358.9	167.78	210.62	1146	227.19	197.87	1038.3	250.78	278.64	907.47	241.4	311.33	809.71	196.32	269.17	795.38	256.23	320.74	763.51	244.97	182.16	1370.1	-173.9	205.2	926.17	-255.12	186.46	806.42	-268.35	239.33	769.33	-261.34	211.85	754.33	178.85	229.16	571.04	134.57	285.29	678.72	128.77	219.68	662.65	155.11	232.8	465.73	119.58	210.15	742.07	-167.6	273.78	567.27	-146.96	311.37	676.28	-136.04	242.71	650.68	-159.35	283.37	471.96	-135.91	263.71	370.92	-62.39	130.09	238.94	-63.351	175.71	324.45	-133.08	196.12	303	-66.931	50.652	179.07	-28.125	123.59	65.824	-64.929	148.83	42.83	-91.638	286.49	1596.2	-35	295.55	1597.8	37.757	95.121	1142.3	3.878	78.807	71.04	-127.73	65.101	975.82	-40.509	74.795	988.12	73.874	25.957	178.25	-107.31	127.14	1553.7	79.956	245.27	343.05	38.825	158.43	1162.8	-225.07	116.86	1561.6	-46.581	217.48	253.85	106.63	201.69	163.11	30.529	347.01	29.266	63.89	223.29	252.67	35.118	-28.505	185.09	-51.664	164.07	1017.5	175.59	100.48	26.572	31.221	303.18	38.356	32.332	140.04	1043.8	-240.12	126.95	1027.4	-170.02	238.42	812.63	-218.23	147.81	60.65	78.58	257.79	20.806	117.08	164.71	76.823	0.07163
